<svg width="400" height="400" viewBox="0 0 400 400" fill="none" xmlns="http://www.w3.org/2000/svg">
<rect width="400" height="400" fill="#191919"/>
<path d="M54.3751 83.3341H104.921L132.699 294.45H323.437L328.496 261.116H161.934L147.68 152.78H311.227L305.244 191.67H188.837L193.198 225.004H333.842L350 119.446H143.294L134.156 50H50L54.3751 83.3341Z" fill="#66FFFF"/>
<path d="M188.984 330.562C188.984 341.301 180.279 350.007 169.539 350.007C158.8 350.007 150.095 341.301 150.095 330.562C150.095 319.823 158.8 311.117 169.539 311.117C180.279 311.117 188.984 319.823 188.984 330.562Z" fill="#66FFFF"/>
<path d="M272.32 350.007C283.059 350.007 291.764 341.301 291.764 330.562C291.764 319.823 283.059 311.117 272.32 311.117C261.58 311.117 252.875 319.823 252.875 330.562C252.875 341.301 261.58 350.007 272.32 350.007Z" fill="#66FFFF"/>
</svg>
