<svg width="72" height="73" viewBox="0 0 72 73" fill="none" xmlns="http://www.w3.org/2000/svg">
<path d="M1.05002 8.00019H13.1809L19.8478 58.668H65.6248L66.8391 50.6678H26.8642L23.4431 24.6672H62.6945L61.2585 34.0008H33.3208L34.3675 42.001H68.1221L72 16.6671H22.3905L20.1974 0H0L1.05002 8.00019Z" fill="#66FFFF"/>
<path d="M33.3562 67.3349C33.3562 69.9123 31.2668 72.0017 28.6895 72.0017C26.1121 72.0017 24.0227 69.9123 24.0227 67.3349C24.0227 64.7575 26.1121 62.6681 28.6895 62.6681C31.2668 62.6681 33.3562 64.7575 33.3562 67.3349Z" fill="#66FFFF"/>
<path d="M53.3567 72.0017C55.9341 72.0017 58.0235 69.9123 58.0235 67.3349C58.0235 64.7575 55.9341 62.6681 53.3567 62.6681C50.7793 62.6681 48.6899 64.7575 48.6899 67.3349C48.6899 69.9123 50.7793 72.0017 53.3567 72.0017Z" fill="#66FFFF"/>
</svg>
